# xmcd CD database file
#
# Track frame offsets:
#	150
#	4840
#	25452
#	26892
#	42917
#	65972
#	94802
#	115530
#	137035
#	139087
#	156590
#	187900
#	189615
#	222955
#	244860
#	247777
#	273817
#	294647
#	296555
#	319302
#
# Disc length: 4313 seconds
#
# Revision: 4
# Processed by: cddbd v1.5.2PL0 Copyright (c) Steve Scherf et al.
# Submitted via: CDex 1.51
#
DISCID=3210d714
DTITLE=Billy Idol - Cyberpunk
DYEAR=1993
DGENRE=Rock
TTITLE0=Introduction Narration
TTITLE1=Wasteland
TTITLE2=Pre-Shock
TTITLE3=Shock To The System
TTITLE4=Tomorrow People
TTITLE5=Adam In Chains
TTITLE6=Neuromancer
TTITLE7=Power Junkie
TTITLE8=That Which Beareth Thorns
TTITLE9=Love Labours On
TTITLE10=Heroin
TTITLE11=Injection
TTITLE12=Shangrila
TTITLE13=Concrete Kingdom
TTITLE14=Galaxy Within
TTITLE15=Venus
TTITLE16=Then The Night Comes
TTITLE17=Before Dawn
TTITLE18=Mother Dawn
TTITLE19=Hold Me
EXTD=YEAR: 1993
EXTT0=
EXTT1=
EXTT2=
EXTT3=
EXTT4=
EXTT5=
EXTT6=
EXTT7=
EXTT8=
EXTT9=
EXTT10=
EXTT11=
EXTT12=
EXTT13=
EXTT14=
EXTT15=
EXTT16=
EXTT17=
EXTT18=
EXTT19=
PLAYORDER=
